<?xml version="1.0" standalone="no"?>
<!DOCTYPE svg PUBLIC "-//W3C//DTD SVG 20010904//EN"
 "http://www.w3.org/TR/2001/REC-SVG-20010904/DTD/svg10.dtd">
<svg version="1.0" xmlns="http://www.w3.org/2000/svg"
 width="512.000000pt" height="512.000000pt" viewBox="0 0 512.000000 512.000000"
 preserveAspectRatio="xMidYMid meet">
<metadata>
Created by potrace 1.14, written by Peter Selinger 2001-2017
</metadata>
<g transform="translate(0.000000,512.000000) scale(0.100000,-0.100000)"
fill="#000000" stroke="none">
<path d="M2368 5115 c-2 -1 -33 -5 -69 -9 -663 -62 -1305 -411 -1730 -938
-314 -390 -505 -854 -557 -1348 -9 -86 -8 -426 1 -515 27 -269 88 -501 195
-755 42 -99 121 -252 134 -261 5 -3 10 -10 10 -15 1 -18 165 -266 187 -284 3
-3 18 -21 32 -40 45 -60 66 -80 73 -72 4 4 6 2 4 -5 -2 -6 24 -40 57 -75 67
-70 231 -221 246 -226 6 -2 24 -17 42 -33 36 -34 227 -163 302 -205 247 -138
540 -245 785 -288 194 -35 259 -40 475 -40 193 -1 319 8 435 30 14 3 39 7 55
10 125 22 377 96 404 118 8 6 15 9 15 6 1 -2 29 6 63 19 37 14 60 28 56 34 -3
6 -1 7 5 3 13 -8 202 82 202 96 0 4 3 7 8 6 12 -3 81 36 184 105 414 278 745
679 941 1142 28 66 82 219 92 260 1 6 5 17 8 25 6 17 34 131 41 170 2 14 7 36
10 50 9 39 16 80 22 135 3 28 7 57 11 65 9 25 11 449 2 525 -17 147 -21 173
-45 290 -61 288 -188 597 -348 845 -430 668 -1129 1094 -1921 1170 -73 7 -420
11 -427 5z"/>
</g>
</svg>
